# xmcd
#
# Track frame offsets: 
#        165
#        37077
#        64604
#        89681
#        113298
#        134884
#        166431
#        189041
#        213643
#        245713
#        275340
#
# Disc length: 4011 seconds
#
# Revision: 1
# Processed by: cddbd v1.5.2PL0 Copyright (c) Steve Scherf et al.
# Submitted via: ExactAudioCopy v1.2
#
DISCID=a20fa90b
DTITLE=Whitesnake - 1987 [30th Anniversary Super Deluxe Edition] (Disc
DTITLE=3) [87 Evolutions Demos And Rehearsals]
DYEAR=1987
DGENRE=Rock
TTITLE0=Still Of The Night
TTITLE1=Give Me All Your Love
TTITLE2=Bad Boys
TTITLE3=Is This Love
TTITLE4=Straight For The Heart
TTITLE5=Looking For Love
TTITLE6=Children Of The Night
TTITLE7=You’re Gonna Break My Heart Again
TTITLE8=Crying In The Rain
TTITLE9=Don’t Turn Away
TTITLE10=Crying In The Rain (Lil’ Mountain Alternate Take Ruff Mix)
EXTD=
EXTT0=
EXTT1=
EXTT2=
EXTT3=
EXTT4=
EXTT5=
EXTT6=
EXTT7=
EXTT8=
EXTT9=
EXTT10=
PLAYORDER=
